<svg width="56" height="56" viewBox="0 0 56 56" fill="none" xmlns="http://www.w3.org/2000/svg">
<path d="M19.3402 3.31756L16.115 11.183L6.17188 1.23991C10.429 -0.93881 15.7764 -0.246258 19.3402 3.31756Z" fill="#4BB3A4"/>
<path d="M11.3281 11.3263L23.2158 27.8543L30.4647 20.6054L22.5708 12.7115C22.9815 9.36967 21.9034 5.88165 19.3381 3.31641L11.3281 11.3263Z" fill="#60D9CE"/>
<path d="M11.3272 11.3276L25.5351 25.5356L20.6056 30.4651L12.7117 22.5712C9.37064 22.9811 5.88263 21.9031 3.31739 19.3377C-0.246534 15.7738 -0.938647 10.4274 1.23996 6.16992L8.86239 13.7924L11.3272 11.3276Z" fill="#4BB3A4"/>
<path d="M36.6641 52.6819L39.8893 44.8164L49.8324 54.7595C45.5751 56.9382 40.2279 56.2457 36.6641 52.6819Z" fill="#60D9CE"/>
<path d="M44.6718 44.6726L32.7841 28.1445L25.5352 35.3935L33.4291 43.2874C33.0184 46.6292 34.0964 50.1172 36.6618 52.6824L44.6718 44.6726Z" fill="#4BB3A4"/>
<path d="M44.6727 44.6726L30.4648 30.4647L35.3944 25.5352L43.2883 33.4291C46.6293 33.0191 50.1173 34.0972 52.6826 36.6626C56.2463 40.2263 56.9385 45.5728 54.7599 49.8302L47.1375 42.2078L44.6727 44.6726Z" fill="#60D9CE"/>
<path d="M53.2395 2.75781L54.4718 3.99012C56.505 6.02337 56.505 9.35062 54.4718 11.3839L51.4798 14.3759L43.457 9.44676L53.2395 2.75781Z" fill="#FF6126"/>
<path d="M52.0107 1.52502L53.243 2.75733L45.0074 10.993L41.625 4.51704L44.617 1.52502C46.6503 -0.50834 49.9775 -0.50834 52.0107 1.52502Z" fill="#FF8151"/>
<path d="M46.55 9.44727L51.4792 14.3765L46.55 19.3056L38.5273 14.3765L46.55 9.44727Z" fill="#A3FDF6"/>
<path d="M41.6244 4.51758L46.5537 9.44681L40.0777 15.9227L36.6953 9.44681L41.6244 4.51758Z" fill="#DBFFFA"/>
<path d="M4.52324 49.9297L5.60593 54.106L0.65625 55.3434L4.52324 49.9297Z" fill="#000E0F"/>
<path d="M1.8937 50.3926L3.74987 52.2486L0.65625 55.3423L1.8937 50.3926Z" fill="#116371"/>
<path d="M9.64543 44.8066L13.8008 52.0557L5.60606 54.1051L3.75 52.2489L9.64543 44.8066Z" fill="#FFA07D"/>
<path d="M3.9432 42.1973L8.87275 47.1268L3.7507 52.2489L1.89453 50.3928L3.9432 42.1973Z" fill="#FFC0A8"/>
<path d="M41.6221 14.375L46.5513 19.3042L13.8003 52.0553L8.87109 47.1261L22.9264 28.4305L41.6221 14.375Z" fill="#FFD15E"/>
<path d="M41.6204 14.3763L36.6914 9.44727L3.94074 42.198L8.86978 47.127L41.6204 14.3763Z" fill="#FFEA7C"/>
</svg>
