<svg width="56" height="44" viewBox="0 0 56 44" fill="none" xmlns="http://www.w3.org/2000/svg">
<path d="M3.9603 19.9458C1.78223 19.9458 0.257812 18.5844 0.257812 16.4064L0.327673 3.99489C0.327673 2.65492 0.66751 1.502 1.68894 0.789311C2.32782 0.343557 3.10485 0.0820312 3.94306 0.0820312H52.0566C54.2347 0.0820312 56.0003 1.8477 56.0003 4.02576V16.4203C56.0003 17.3146 55.7027 18.1393 55.2011 18.8009C54.481 19.7507 53.3766 20.0158 52.0928 20.0158C48.4753 20.0157 3.9603 19.9458 3.9603 19.9458Z" fill="#EE6161"/>
<path d="M55.2934 18.6753C54.5812 19.6973 53.397 20.3654 52.0573 20.3654H3.94373C1.76567 20.3654 0 18.5998 0 16.4217V4.02713C0 2.68739 0.668181 1.50314 1.69017 0.791016V16.4217C1.69017 17.6634 2.70089 18.6753 3.94373 18.6753H55.2934Z" fill="#E94444"/>
<path d="M42.3531 28.6994C42.3531 28.6994 40.6138 28.7128 40.2987 29.5475V28.8225C40.2987 27.563 37.877 27.1787 37.877 27.1787C37.877 27.1787 35.6984 27.563 35.6984 28.8225C35.6976 28.2124 35.6967 28.0782 35.696 27.468C35.696 26.2085 33.5198 25.9177 33.5198 25.9177C33.5198 25.9177 31.4417 25.9003 31.1763 26.8693V25.9177V19.508C31.1763 18.2485 28.8762 17.5332 28.8762 17.5332C28.8762 17.5332 26.9777 18.3964 26.9777 19.6559L26.576 27.9332L25.5254 28.3328C23.9614 28.3328 22.8068 29.1713 22.8068 30.748L22.7695 33.8717C22.7695 36.3024 23.8164 38.4855 25.7637 39.9187L26.2143 40.2503C27.2258 41.0152 28.069 42.0142 28.1753 43.2757C28.1898 43.4488 28.331 43.5834 28.5046 43.5834L41.3901 43.5275C41.5729 43.5275 41.721 43.3794 41.721 43.1966C41.721 42.7163 42.2482 42.6328 42.3529 42.1697C42.5383 41.3492 42.8839 40.5689 43.3744 39.8764C44.1419 38.7928 44.5544 37.4948 44.5544 36.1635V30.3339C44.5543 29.111 42.3531 28.6994 42.3531 28.6994Z" fill="#F1D0A5"/>
<path d="M29.6915 42.1696C29.5118 42.1696 29.3494 42.0602 29.2853 41.8923C28.864 40.7893 28.1074 39.7881 27.0934 39.0219L26.6252 38.6762C25.1301 37.5765 24.2389 35.8056 24.2389 33.9372V30.7849C24.2389 30.1891 24.7125 29.6863 25.3082 29.6839H25.3197H26.5799L27.3037 28.9915L26.5799 27.9336H25.3197C25.0953 27.9336 24.878 27.9627 24.6686 28.0125C24.6698 28.0116 24.6708 28.0104 24.6721 28.0094C23.4135 28.2937 22.4726 29.4998 22.4885 30.7881V32.5384V33.9372C22.4885 36.3687 23.6394 38.6529 25.5866 40.0867L26.0373 40.4179C27.0495 41.1836 27.7978 42.3504 27.9042 43.6121C27.9189 43.7853 28.0601 43.9199 28.2339 43.9199H41.8662C42.05 43.9199 42.1973 43.7712 42.1973 43.5887C42.1973 43.1074 42.2513 42.6319 42.3563 42.1696H29.6915Z" fill="#F2BB88"/>
<path d="M31.1811 19.5064V20.5274C31.1811 19.93 30.9492 19.3863 30.5698 18.9797C29.9665 18.3333 28.8809 18.7686 28.8809 19.6527V33.8124C28.8809 34.4473 28.3663 34.9619 27.7315 34.9619C27.0966 34.9619 26.582 34.4473 26.582 33.8124V19.5064C26.582 18.2475 27.6118 17.2266 28.8808 17.2266C30.1513 17.2266 31.1811 18.2477 31.1811 19.5064Z" fill="#F2BB88"/>
<path d="M35.7008 28.4879C35.7008 27.9658 35.5239 27.4845 35.2263 27.0999C34.6617 26.3705 33.4867 26.7918 33.4867 27.7143V30.8927C33.4867 31.4117 33.066 31.8324 32.547 31.8324H32.1155C31.5961 31.8324 31.1752 31.411 31.1758 30.8917L31.1805 26.8674C31.446 25.8989 32.3386 25.1855 33.4005 25.1855C33.4297 25.1855 33.4589 25.1855 33.4866 25.187C34.7177 25.2322 35.7007 26.2357 35.7007 27.4668C35.7023 28.0765 35.7023 29.0976 35.7008 28.4879Z" fill="#F2BB88"/>
<path d="M40.3056 28.8213V29.8423C40.3056 29.245 40.0737 28.7012 39.6943 28.2947C39.0911 27.6482 38.0054 28.0835 38.0054 28.9677V30.9125C38.0054 31.4315 37.5847 31.8523 37.0657 31.8523H36.6507C36.1317 31.8523 35.7109 31.4315 35.7109 30.9125V28.6637C35.7712 27.4922 36.8363 26.519 38.0053 26.5414C39.2757 26.5415 40.3056 27.5625 40.3056 28.8213Z" fill="#F2BB88"/>
<path d="M44.5594 30.3323V31.3533C44.5594 30.5806 43.9641 29.8997 43.2379 29.504C42.7549 29.2407 42.1659 29.5984 42.1659 30.1485V30.9215C42.1659 31.4354 41.7492 31.8521 41.2353 31.8521C40.7214 31.8521 40.3047 31.4354 40.3047 30.9215V29.5461C40.6391 28.6365 41.5961 28.0095 42.6034 28.1326C43.7032 28.2537 44.5594 29.1931 44.5594 30.3323Z" fill="#F2BB88"/>
<path d="M42.4597 13.1328V7.34732C42.4597 6.88455 42.1032 6.48105 41.6406 6.46719C41.1621 6.45277 40.7695 6.83655 40.7695 7.31194V13.0974C40.7695 13.5602 41.126 13.9637 41.5886 13.9775C42.0671 13.9918 42.4597 13.6082 42.4597 13.1328Z" fill="#F9F8F9"/>
<path d="M53.1269 8.18236C53.6023 8.18236 53.9859 7.7899 53.9716 7.31124C53.9578 6.8487 53.5543 6.49219 53.0915 6.49219H50.6966C50.2299 6.49219 49.8516 6.87056 49.8516 7.33727V13.105C49.8516 13.5717 50.2299 13.9501 50.6966 13.9501H53.0915C53.5543 13.9501 53.9578 13.5936 53.9716 13.1311C53.9861 12.6525 53.6023 12.26 53.1269 12.26H51.5417V11.0662H52.9123C53.3751 11.0662 53.7786 10.7097 53.7925 10.2472C53.8069 9.76864 53.4231 9.37607 52.9477 9.37607H51.5417V8.18236H53.1269Z" fill="#F9F8F9"/>
<path d="M17.7603 6.4668H16.1224C15.6557 6.4668 15.2773 6.84517 15.2773 7.31188V9.99227V9.99666V13.1128C15.2773 13.2306 15.2954 13.3493 15.3416 13.4577C15.4802 13.7837 15.7914 13.9779 16.1224 13.9779H16.1261C16.1261 13.9779 17.6802 13.9709 18.1085 13.9709C19.4384 13.9709 20.5204 12.889 20.5204 11.5591C20.5204 10.8384 20.2009 10.1923 19.6983 9.7499C19.9204 9.3704 20.0337 8.92002 19.9875 8.43968C19.8788 7.31053 18.8946 6.4668 17.7603 6.4668ZM17.7913 8.15697C18.0493 8.15697 18.2801 8.34514 18.3052 8.60193C18.334 8.89659 18.1022 9.14561 17.8134 9.14561C17.7244 9.14527 17.3991 9.14718 16.9676 9.14718V8.15697H17.7913ZM18.1085 12.2808C17.896 12.2808 17.4073 12.2824 16.9675 12.2841V10.8381C16.9766 10.8371 18.033 10.8372 18.1085 10.8372C18.5065 10.8372 18.8302 11.1611 18.8302 11.5589C18.8302 11.9568 18.5065 12.2808 18.1085 12.2808Z" fill="#F9F8F9"/>
<path d="M46.1314 6.4668H44.4935C44.0268 6.4668 43.6484 6.84517 43.6484 7.31188V13.1127C43.6484 13.2305 43.6665 13.3492 43.7127 13.4576C43.8513 13.7835 44.1625 13.9778 44.4935 13.9778H44.4972C44.4972 13.9778 46.0513 13.9708 46.4796 13.9708C47.8095 13.9708 48.8915 12.8889 48.8915 11.5589C48.8915 10.8383 48.572 10.1922 48.0692 9.74978C48.2913 9.37029 48.4047 8.9198 48.3585 8.43957C48.2499 7.31053 47.2657 6.4668 46.1314 6.4668ZM46.1624 8.15697C46.4204 8.15697 46.6512 8.34514 46.6763 8.60193C46.7051 8.89659 46.4733 9.14561 46.1845 9.14561C46.0955 9.14527 45.7702 9.14718 45.3387 9.14718V8.15697H46.1624ZM46.4796 12.2808C46.2671 12.2808 45.7784 12.2824 45.3386 12.2841V10.8381C45.3477 10.8371 46.4041 10.8372 46.4796 10.8372C46.8776 10.8372 47.2013 11.1611 47.2013 11.5589C47.2013 11.9568 46.8776 12.2808 46.4796 12.2808Z" fill="#F9F8F9"/>
<path d="M30.9534 8.1904C31.4906 8.09496 32.0244 8.20617 32.4643 8.49621C32.8402 8.74398 33.3573 8.67964 33.6294 8.32099C33.9252 7.93124 33.83 7.37889 33.4301 7.10869C32.7256 6.63274 31.8866 6.4111 31.0273 6.4787C29.1061 6.62981 27.5953 8.25384 27.5744 10.181C27.5518 12.2707 29.2451 13.9779 31.3298 13.9779C32.2259 13.9593 33.1678 13.6308 33.8107 12.8544C34.1107 12.4968 34.064 11.9638 33.7065 11.6638C33.3489 11.3637 32.8159 11.4104 32.5159 11.768C32.2767 12.0426 31.9378 12.2558 31.3298 12.2877C30.0848 12.2877 29.0935 11.1803 29.2892 9.89882C29.4203 9.03976 30.0979 8.3424 30.9534 8.1904Z" fill="#F9F8F9"/>
<path d="M4.90869 12.2874C4.37594 12.2874 3.86405 12.079 3.53097 11.7285C3.21953 11.4007 2.70887 11.3258 2.35506 11.6075C1.96948 11.9144 1.92835 12.4777 2.25399 12.8371C2.91079 13.562 3.87836 13.9776 4.90869 13.9776C6.19243 13.9776 7.27121 13.1541 7.4738 12.0195C7.62704 11.1611 7.24326 10.0419 5.70667 9.47514C5.08379 9.24539 4.4982 8.99761 4.22541 8.87963C4.1098 8.8296 4.03746 8.7096 4.05459 8.58475C4.0547 8.58408 4.05481 8.58351 4.05481 8.58284C4.06642 8.50239 4.12659 8.30531 4.43533 8.21224C5.19286 7.98396 5.9069 8.54351 5.92921 8.56132C6.28651 8.85687 6.81588 8.80932 7.1147 8.45382C7.41498 8.09652 7.36879 7.56344 7.0116 7.26315C6.95469 7.21538 5.59828 6.0966 3.94788 6.59396C3.10009 6.8494 2.49997 7.51938 2.38177 8.34272C2.27044 9.11795 2.60667 9.86388 3.25908 10.2892C3.39001 10.3716 4.14135 10.6892 5.12165 11.0609C5.29912 11.1263 5.87321 11.3675 5.80977 11.7225C5.76132 11.9941 5.40301 12.2874 4.90869 12.2874Z" fill="#F9F8F9"/>
<path d="M24.2447 12.2875C23.712 12.2875 23.2 12.0791 22.8669 11.7286C22.5555 11.4008 22.0448 11.3259 21.691 11.6076C21.3054 11.9145 21.2643 12.4778 21.5899 12.8372C22.2467 13.5621 23.2144 13.9778 24.2446 13.9778C25.5284 13.9778 26.607 13.1542 26.8096 12.0196C26.9629 11.1613 26.5792 10.042 25.0425 9.47525C24.4196 9.2455 23.8341 8.99772 23.5612 8.87975C23.4456 8.82972 23.3732 8.70971 23.3904 8.58487C23.3905 8.58419 23.3906 8.58363 23.3906 8.58295C23.4022 8.50261 23.4624 8.30543 23.7712 8.21235C24.5278 7.98407 25.2415 8.54261 25.265 8.56132C25.6222 8.85698 26.1517 8.80955 26.4505 8.45382C26.7508 8.09663 26.7046 7.56344 26.3473 7.26315C26.2904 7.21538 24.934 6.0966 23.2836 6.59396C22.4358 6.8494 21.8356 7.51938 21.7175 8.34272C21.6062 9.11795 21.9424 9.86388 22.5949 10.2892C22.7257 10.3717 23.4772 10.6892 24.4574 11.0609C24.6348 11.1263 25.2088 11.3675 25.1455 11.7224C25.0974 11.9942 24.7391 12.2875 24.2447 12.2875Z" fill="#F9F8F9"/>
<path d="M11.8814 12.1581C11.7076 12.2457 11.5202 12.2889 11.3011 12.2878C11.0673 12.2875 10.8647 12.2306 10.682 12.1138C10.2465 11.8356 10.1589 11.6028 10.1589 11.3174V7.34743C10.1589 6.88466 9.80241 6.48116 9.33986 6.4673C8.86132 6.45288 8.46875 6.83666 8.46875 7.31205V11.3174C8.46875 12.2386 8.90729 12.9857 9.77198 13.5381C10.0947 13.743 10.6688 13.9687 11.3031 13.9779C11.7824 13.9779 12.2326 13.8734 12.6416 13.6675C13.6488 13.1603 14.2036 12.3241 14.2036 11.313V7.34732C14.2036 6.88455 13.8471 6.48105 13.3846 6.46719C12.906 6.45277 12.5134 6.83655 12.5134 7.31194V11.3131C12.5136 11.5736 12.4384 11.8777 11.8814 12.1581Z" fill="#F9F8F9"/>
<path d="M39.8098 8.82377C39.8098 7.52369 38.7137 6.46598 37.3663 6.46598H35.8195C35.8192 6.46598 35.8189 6.46598 35.8186 6.46598H35.8177C35.3529 6.44187 34.9727 6.803 34.9727 7.26837V13.0965C34.9727 13.5593 35.3292 13.9628 35.7917 13.9767C36.2703 13.9911 36.6628 13.6073 36.6628 13.1319V11.7955L38.3305 13.6903C38.4974 13.8802 38.7307 13.9771 38.9652 13.9771C39.1671 13.9771 39.3699 13.9051 39.5319 13.7585C39.8788 13.4447 39.8861 12.8997 39.577 12.5486L38.2373 11.0264C39.1557 10.6869 39.8098 9.82796 39.8098 8.82377ZM37.3663 8.15616C37.7746 8.15616 38.1196 8.46185 38.1196 8.82377C38.1196 9.18569 37.7746 9.4915 37.3663 9.4915C37.2009 9.4915 36.9352 9.49252 36.6706 9.49376C36.669 9.21353 36.6686 8.7805 36.6671 8.15616H37.3663Z" fill="#F9F8F9"/>
</svg>
