<svg width="56" height="56" viewBox="0 0 56 56" fill="none" xmlns="http://www.w3.org/2000/svg">
<path d="M46.1758 25.4707L49.2243 24.2532L55.7799 40.6686L52.7313 41.886L46.1758 25.4707Z" fill="#FF9F40"/>
<path d="M0.238281 40.6289L6.79381 24.2136L9.84237 25.431L3.28684 41.8464L0.238281 40.6289Z" fill="#FFBE40"/>
<path d="M49.3277 55.9994H6.67188V23.1873H49.3277V55.9994Z" fill="#FFDF40"/>
<path d="M27.9961 23.1875H49.324V55.9997H27.9961V23.1875Z" fill="#FFBE40"/>
<path d="M26.3594 46.1562H29.6406V49.4375H26.3594V46.1562Z" fill="#665252"/>
<path d="M52.7188 19.6875H56V22.9687H52.7188V19.6875Z" fill="#D13465"/>
<path d="M6.67188 3.28125H9.95309V6.56247H6.67188V3.28125Z" fill="#FF525F"/>
<path d="M29.6406 42.8749H26.3593V42.1924C26.3593 39.5921 27.3319 37.317 29.0285 35.9519C29.4162 35.6379 29.6406 35.1701 29.6406 34.6718C29.6406 33.7666 28.9051 33.0312 27.9999 33.0312C27.0948 33.0312 26.3593 33.7666 26.3593 34.6718H23.0781C23.0781 31.9578 25.2859 29.75 27.9999 29.75C30.714 29.75 32.9218 31.9578 32.9218 34.6718C32.9218 36.1683 32.2537 37.5653 31.0874 38.5058C30.1676 39.2459 29.6406 40.5902 29.6406 42.1924V42.8749Z" fill="#665252"/>
<path d="M29.6406 34.6718C29.6406 35.1701 29.4163 35.6379 29.0286 35.9519C28.6434 36.2618 28.3076 36.6313 28 37.028V42.8749H29.6406V42.1924C29.6406 40.5903 30.1677 39.2461 31.0874 38.5058C32.2538 37.5653 32.9218 36.1683 32.9218 34.6718C32.9218 31.9578 30.714 29.75 28 29.75V33.0312C28.9052 33.0312 29.6406 33.7666 29.6406 34.6718Z" fill="#4D3636"/>
<path d="M18.1562 9.84365C15.4422 9.84365 13.2344 7.63583 13.2344 4.92182C13.2344 2.20782 15.4422 0 18.1562 0C20.8702 0 23.078 2.20782 23.078 4.92182C23.078 7.63583 20.8702 9.84365 18.1562 9.84365Z" fill="#E1E6F0"/>
<path d="M42.7655 3.28122H39.4843V0H36.2031V3.28122H32.9219V6.56243H36.2031V9.84365H39.4843V6.56243H42.7655V3.28122Z" fill="#FFBE40"/>
<path d="M6.56243 9.84363H3.28122V13.1248H0V16.4061H3.28122V19.6873H6.56243V16.4061H9.84365V13.1248H6.56243V9.84363Z" fill="#FFDF40"/>
<path d="M26.3555 6.5625H29.6367V16.4061H26.3555V6.5625Z" fill="#E1E6F0"/>
<path d="M14.2734 13.9609L17.1154 12.3201L20.3965 18.0028L17.5545 19.6437L14.2734 13.9609Z" fill="#E1E6F0"/>
<path d="M52.6083 9.84375H44.4052C42.8402 9.84375 41.4446 10.5787 40.5425 11.7208L40.5393 11.7183L35.7344 17.8081L38.3107 19.8396L40.2441 17.3892C41.1169 18.7688 42.6552 19.6874 44.4052 19.6874C47.1192 19.6874 49.327 17.4796 49.327 14.7656C49.327 14.1904 49.227 13.6385 49.0449 13.125H52.6083V9.84375Z" fill="#C3D0E6"/>
<path d="M28 46.1562H29.6406V49.4375H28V46.1562Z" fill="#4D3636"/>
<path d="M28 6.5625H29.6406V16.4061H28V6.5625Z" fill="#C3D0E6"/>
</svg>
